0
SECTION
2
HEADER
9
$INSUNITS
70
4
9
$ACADVER
1
AC1014
9
$HANDSEED
5
FFFF
0
ENDSEC
0
SECTION
2
TABLES
0
TABLE
2
VPORT
5
8
100
AcDbSymbolTable
0
ENDTAB
0
TABLE
2
LTYPE
5
5
100
AcDbSymbolTable
0
LTYPE
5
14
100
AcDbSymbolTableRecord
100
AcDbLinetypeTableRecord
2
BYBLOCK
70
0
0
LTYPE
5
15
100
AcDbSymbolTableRecord
100
AcDbLinetypeTableRecord
2
BYLAYER
70
0
0
LTYPE
5
16
100
AcDbSymbolTableRecord
100
AcDbLinetypeTableRecord
2
DASHED
70
0
3
Dashed __ __ __ __ __ __ __ __ __ __ __ __ __ _
72
65
73
2
40
0.75
49
0.5
74
0
49
-0.25
74
0
0
ENDTAB
0
TABLE
2
LAYER
5
2
100
AcDbSymbolTable
70
3
0
LAYER
5
50
100
AcDbSymbolTableRecord
100
AcDbLayerTableRecord
2
1
70
0
62
7
6
DASHED
0
LAYER
5
51
100
AcDbSymbolTableRecord
100
AcDbLayerTableRecord
2
0
70
0
62
7
6
CONTINUOUS
0
ENDTAB
0
TABLE
2
STYLE
5
3
100
AcDbSymbolTable
70
1
0
STYLE
5
11
100
AcDbSymbolTableRecord
100
AcDbTextStyleTableRecord
2
STANDARD
70
0
0
ENDTAB
0
TABLE
2
VIEW
5
6
100
AcDbSymbolTable
70
0
0
ENDTAB
0
TABLE
2
UCS
5
7
100
AcDbSymbolTable
70
0
0
ENDTAB
0
TABLE
2
APPID
5
9
100
AcDbSymbolTable
70
2
0
APPID
5
12
100
AcDbSymbolTableRecord
100
AcDbRegAppTableRecord
2
ACAD
70
0
0
ENDTAB
0
TABLE
2
DIMSTYLE
5
A
100
AcDbSymbolTable
70
1
0
ENDTAB
0
TABLE
2
BLOCK_RECORD
5
1
100
AcDbSymbolTable
70
1
0
BLOCK_RECORD
5
1F
100
AcDbSymbolTableRecord
100
AcDbBlockTableRecord
2
*MODEL_SPACE
0
BLOCK_RECORD
5
1B
100
AcDbSymbolTableRecord
100
AcDbBlockTableRecord
2
*PAPER_SPACE
0
ENDTAB
0
ENDSEC
0
SECTION
2
BLOCKS
0
BLOCK
5
20
100
AcDbEntity
100
AcDbBlockBegin
2
*MODEL_SPACE
0
ENDBLK
5
21
100
AcDbEntity
100
AcDbBlockEnd
0
BLOCK
5
1C
100
AcDbEntity
100
AcDbBlockBegin
2
*PAPER_SPACE
0
ENDBLK
5
1D
100
AcDbEntity
100
AcDbBlockEnd
0
ENDSEC
0
SECTION
2
ENTITIES
0
ARC
5
100
100
AcDbEntity
8
0
100
AcDbCircle
10
13.61397058818115
20
-3.2649356536661625
30
0
40
2.5000000149568073
210
0
220
0
230
1
100
AcDbArc
50
346.51388643371968
51
347.09495093501823
0
ARC
5
101
100
AcDbEntity
8
0
100
AcDbCircle
10
-13.613970588267101
20
-3.2649356536864027
30
0
40
2.500000014868506
210
0
220
0
230
1
100
AcDbArc
50
192.9050490649694
51
193.48611356628857
0
ARC
5
102
100
AcDbEntity
8
0
100
AcDbCircle
10
-13.613970588213679
20
3.2649356536741427
30
0
40
2.5000000149233212
210
0
220
0
230
1
100
AcDbArc
50
166.51388643372402
51
167.09495093503006
0
ARC
5
103
100
AcDbEntity
8
0
100
AcDbCircle
10
13.613970588174107
20
3.2649356536646263
30
0
40
2.5000000149640131
210
0
220
-0
230
1
100
AcDbArc
50
12.90504906498003
51
13.486113566276781
0
ARC
5
104
100
AcDbEntity
8
0
100
AcDbCircle
10
-14.588712119739423
20
3.4882716708444459
30
0
40
0.90000000000000091
210
0
220
0
230
1
100
AcDbArc
50
167.09495093502508
51
265.30816175999797
0
ARC
5
105
100
AcDbEntity
8
0
100
AcDbCircle
10
-14.875
20
0
30
0
40
2.6000000000000005
210
0
220
0
230
1
100
AcDbArc
50
-85.308161759997887
51
85.308161759997915
0
ARC
5
106
100
AcDbEntity
8
0
100
AcDbCircle
10
-14.588712119739418
20
-3.4882716708444459
30
0
40
0.89999999999999969
210
0
220
0
230
1
100
AcDbArc
50
94.691838240002269
51
192.90504906497179
0
ARC
5
107
100
AcDbEntity
8
0
100
AcDbCircle
10
-13.613970588267101
20
-3.2649356536864027
30
0
40
1.9000000148685081
210
0
220
0
230
1
100
AcDbArc
50
192.90504906496867
51
193.4861135662878
0
ARC
5
108
100
AcDbEntity
8
0
100
AcDbCircle
10
-1.1102230246251565e-15
20
0
30
0
40
15.90000001490116
210
0
220
0
230
1
100
AcDbArc
50
193.48611356628311
51
346.51388643371666
0
ARC
5
109
100
AcDbEntity
8
0
100
AcDbCircle
10
13.61397058818115
20
-3.2649356536661625
30
0
40
1.9000000149568139
210
0
220
0
230
1
100
AcDbArc
50
346.51388643372064
51
347.09495093501863
0
ARC
5
110
100
AcDbEntity
8
0
100
AcDbCircle
10
14.588712119739416
20
-3.4882716708444454
30
0
40
0.90000000000000235
210
0
220
0
230
1
100
AcDbArc
50
-12.905049064964535
51
85.308161759997844
0
ARC
5
111
100
AcDbEntity
8
0
100
AcDbCircle
10
14.875
20
0
30
0
40
2.6000000000000001
210
0
220
0
230
1
100
AcDbArc
50
94.691838240002198
51
265.30816175999774
0
ARC
5
112
100
AcDbEntity
8
0
100
AcDbCircle
10
14.588712119739416
20
3.488271670844445
30
0
40
0.89999999999999913
210
0
220
0
230
1
100
AcDbArc
50
-85.308161759997844
51
12.90504906497203
0
ARC
5
113
100
AcDbEntity
8
0
100
AcDbCircle
10
13.613970588174107
20
3.2649356536646263
30
0
40
1.9000000149640135
210
0
220
-0
230
1
100
AcDbArc
50
12.905049064982595
51
13.486113566275854
0
ARC
5
114
100
AcDbEntity
8
0
100
AcDbCircle
10
-1.1102230246251565e-15
20
0
30
0
40
15.900000014901162
210
0
220
-0
230
1
100
AcDbArc
50
13.486113566283517
51
166.51388643371666
0
ARC
5
115
100
AcDbEntity
8
0
100
AcDbCircle
10
-13.613970588213679
20
3.2649356536741427
30
0
40
1.9000000149233209
210
0
220
0
230
1
100
AcDbArc
50
166.51388643372638
51
167.09495093502929
0
LWPOLYLINE
5
116
100
AcDbEntity
8
0
100
AcDbPolyline
90
12
70
1
43
0.0
10
3.8955867063919163
20
10.0725608174138
10
3.8955867063919158
20
-4.8048912583306578
10
1.1919296950401495
20
-4.8048912583306569
10
1.1919296950401497
20
-5.799498500651266
42
-1.0454543069616731
10
-0.80783178055255211
20
-5.8213386453555627
10
-0.80783178055255378
20
-4.8048912583306569
10
-3.4905944541259588
20
-4.8048912583306569
10
-3.4905944541259588
20
10.0725608174138
10
-0.79755452310340025
20
10.0725608174138
10
-0.79755452310340025
20
11.06817784029178
42
-0.99999999999999989
10
1.2024454768966002
20
11.068177840291785
10
1.2024454768966002
20
10.0725608174138
0
ENDSEC
0
SECTION
2
OBJECTS
0
DICTIONARY
5
C
100
AcDbDictionary
3
ACAD_GROUP
350
D
3
ACAD_MLINESTYLE
350
17
0
DICTIONARY
5
D
100
AcDbDictionary
0
DICTIONARY
5
1A
330
C
100
AcDbDictionary
0
DICTIONARY
5
17
100
AcDbDictionary
0
ENDSEC
0
EOF
